<svg 
 xmlns="http://www.w3.org/2000/svg"
 xmlns:xlink="http://www.w3.org/1999/xlink"
 width="108px" height="128px">
<defs>
<linearGradient id="PSgrad_0" x1="0%" x2="100%" y1="0%" y2="0%">
  <stop offset="0%" stop-color="rgb(195,53,0)" stop-opacity="1" />
  <stop offset="52%" stop-color="rgb(255,176,130)" stop-opacity="1" />
  <stop offset="100%" stop-color="rgb(255,135,61)" stop-opacity="1" />
</linearGradient>

</defs>
<path fill-rule="evenodd"  fill="rgb(255, 255, 255)"
 d="M107.454,102.295 L81.923,102.295 L81.923,76.765 L107.454,76.765 L107.454,102.295 ZM56.393,76.765 L56.393,51.234 L81.923,51.234 L81.923,76.765 L56.393,76.765 ZM107.454,25.704 L107.454,51.234 L81.923,51.234 L81.923,25.704 L107.454,25.704 ZM42.32,0.174 L67.562,0.174 L67.562,25.704 L42.32,25.704 L42.32,0.174 ZM51.606,76.765 L26.76,76.765 L26.76,115.60 L0.545,115.60 L0.545,12.939 L26.76,12.939 L26.76,51.234 L51.606,51.234 L51.606,76.765 ZM67.562,127.825 L42.32,127.825 L42.32,102.295 L67.562,102.295 L67.562,127.825 Z"/>
<path fill="url(#PSgrad_0)"
 d="M107.454,102.295 L81.923,102.295 L81.923,76.765 L107.454,76.765 L107.454,102.295 ZM56.393,76.765 L56.393,51.234 L81.923,51.234 L81.923,76.765 L56.393,76.765 ZM107.454,25.704 L107.454,51.234 L81.923,51.234 L81.923,25.704 L107.454,25.704 ZM42.32,0.174 L67.562,0.174 L67.562,25.704 L42.32,25.704 L42.32,0.174 ZM51.606,76.765 L26.76,76.765 L26.76,115.60 L0.545,115.60 L0.545,12.939 L26.76,12.939 L26.76,51.234 L51.606,51.234 L51.606,76.765 ZM67.562,127.825 L42.32,127.825 L42.32,102.295 L67.562,102.295 L67.562,127.825 Z"/>
</svg>
